<?xml version="1.0" encoding="UTF-8"?>
<svg id="Lager_1" data-name="Lager 1" xmlns="http://www.w3.org/2000/svg" version="1.1" viewBox="0 0 100 100">
  <defs>
    <style>
      .cls-1 {
        fill: #fff;
        stroke: #fff;
        stroke-miterlimit: 10;
        stroke-width: 4px;
      }
    </style>
  </defs>
  <path class="cls-1" d="M88.36,68.95c0-10.6-8.59-19.18-19.18-19.18-10.6,0-19.18,8.59-19.18,19.18,0,5.72,2.52,10.87,6.49,14.38H16.43s0-40.06,0-40.06c3.52,3.97,8.66,6.49,14.38,6.49,10.59,0,19.17-8.58,19.18-19.18,0-10.59-8.58-19.17-19.18-19.18-5.73,0-10.87,2.52-14.38,6.5-2.98,3.38-4.79,7.82-4.8,12.68v57.54s57.54,0,57.54,0c4.86,0,9.3-1.82,12.68-4.8,3.99-3.52,6.5-8.65,6.5-14.38ZM30.82,16.2c7.94,0,14.38,6.45,14.38,14.38,0,7.95-6.44,14.39-14.38,14.38-7.94,0-14.38-6.44-14.38-14.38,0-7.94,6.44-14.38,14.38-14.38ZM69.18,83.33c-7.95,0-14.39-6.44-14.38-14.38,0-7.94,6.44-14.38,14.38-14.38,7.94,0,14.38,6.44,14.38,14.38,0,7.94-6.45,14.38-14.38,14.38Z"/>
  <path class="cls-1" d="M69.18,88.4c-10.6,0-19.18-8.59-19.18-19.18,0-10.6,8.59-19.18,19.18-19.18,5.72,0,10.87,2.52,14.38,6.49V16.46s-40.06,0-40.06,0c3.97,3.52,6.49,8.66,6.49,14.38,0,10.59-8.58,19.17-19.18,19.18-10.59,0-19.17-8.58-19.18-19.18,0-5.73,2.52-10.87,6.5-14.38,3.38-2.98,7.82-4.79,12.68-4.8h57.54s0,57.54,0,57.54c0,4.86-1.82,9.3-4.8,12.68-3.52,3.99-8.65,6.5-14.38,6.5ZM16.44,30.85c0,7.94,6.45,14.38,14.38,14.38,7.95,0,14.39-6.44,14.38-14.38,0-7.94-6.44-14.38-14.38-14.38-7.94,0-14.38,6.44-14.38,14.38ZM83.56,69.22c0-7.95-6.44-14.39-14.38-14.38-7.94,0-14.38,6.44-14.38,14.38,0,7.94,6.44,14.38,14.38,14.38,7.94,0,14.38-6.45,14.38-14.38Z"/>
</svg>